<svg version="1.2" xmlns="http://www.w3.org/2000/svg" viewBox="0 0 512 512" width="512" height="512">
	<style>
		.s0 { fill: #0f0f12 } 
		.s1 { fill: none;stroke: #f3e5ab;stroke-linecap: round;stroke-linejoin: round;stroke-width: 48 } 
		.s2 { fill: #f3e5ab } 
		.s3 { opacity: .6;fill: none;stroke: #f3e5ab;stroke-linecap: round;stroke-width: 12 } 
	</style>
	<path fill-rule="evenodd" class="s0" d="m128 0h256c70.69 0 128 57.31 128 128v256c0 70.69-57.31 128-128 128h-256c-70.69 0-128-57.31-128-128v-256c0-70.69 57.31-128 128-128z"/>
	<path class="s1" d="m140 180l116 240 116-240"/>
	<path fill-rule="evenodd" class="s2" d="m256 200c-11.06 0-20-8.94-20-20 0-11.06 8.94-20 20-20 11.06 0 20 8.94 20 20 0 11.06-8.94 20-20 20z"/>
	<path class="s3" d="m256 226v40m0 40v40m-60-60h40m40 0h40"/>
</svg>